{
    "asset" : {
        "generator" : "Khronos glTF Blender I/O v1.7.33",
        "version" : "2.0"
    },
    "scene" : 0,
    "scenes" : [
        {
            "name" : "Scene",
            "nodes" : [
                0
            ]
        }
    ],
    "nodes" : [
        {
            "mesh" : 0,
            "name" : "Cube"
        }
    ],
    "materials" : [
        {
            "doubleSided" : true,
            "name" : "Material",
            "pbrMetallicRoughness" : {
                "baseColorFactor" : [
                    0.800000011920929,
                    0.800000011920929,
                    0.800000011920929,
                    1
                ],
                "metallicFactor" : 0,
                "roughnessFactor" : 0.4000000059604645
            }
        },
        {
            "doubleSided" : true,
            "name" : "Material.001",
            "pbrMetallicRoughness" : {
                "baseColorFactor" : [
                    0.8000000715255737,
                    0.3259236216545105,
                    0.057456985116004944,
                    1
                ],
                "metallicFactor" : 0.8188976645469666,
                "roughnessFactor" : 0.5
            }
        },
        {
            "doubleSided" : true,
            "emissiveFactor" : [
                0.0024279999456475743,
                0,
                1
            ],
            "name" : "Material.002",
            "pbrMetallicRoughness" : {
                "baseColorFactor" : [
                    0.8000000715255737,
                    0.05331728979945183,
                    0.564607560634613,
                    1
                ],
                "metallicFactor" : 0,
                "roughnessFactor" : 0.5
            }
        }
    ],
    "meshes" : [
        {
            "name" : "Cube",
            "primitives" : [
                {
                    "attributes" : {
                        "POSITION" : 0,
                        "NORMAL" : 1,
                        "TEXCOORD_0" : 2
                    },
                    "indices" : 3,
                    "material" : 0
                },
                {
                    "attributes" : {
                        "POSITION" : 4,
                        "NORMAL" : 5,
                        "TEXCOORD_0" : 6
                    },
                    "indices" : 7,
                    "material" : 1
                },
                {
                    "attributes" : {
                        "POSITION" : 8,
                        "NORMAL" : 9,
                        "TEXCOORD_0" : 10
                    },
                    "indices" : 11,
                    "material" : 2
                }
            ]
        }
    ],
    "accessors" : [
        {
            "bufferView" : 0,
            "componentType" : 5126,
            "count" : 435,
            "max" : [
                0.5930173397064209,
                2.1030337810516357,
                0.8769410848617554
            ],
            "min" : [
                -0.6880097985267639,
                -0.13781484961509705,
                -0.8769410252571106
            ],
            "type" : "VEC3"
        },
        {
            "bufferView" : 1,
            "componentType" : 5126,
            "count" : 435,
            "type" : "VEC3"
        },
        {
            "bufferView" : 2,
            "componentType" : 5126,
            "count" : 435,
            "type" : "VEC2"
        },
        {
            "bufferView" : 3,
            "componentType" : 5123,
            "count" : 2016,
            "type" : "SCALAR"
        },
        {
            "bufferView" : 4,
            "componentType" : 5126,
            "count" : 172,
            "max" : [
                0.6880099773406982,
                2.182030439376831,
                0.6727969646453857
            ],
            "min" : [
                -0.6727969646453857,
                1.389719009399414,
                -0.6727969646453857
            ],
            "type" : "VEC3"
        },
        {
            "bufferView" : 5,
            "componentType" : 5126,
            "count" : 172,
            "type" : "VEC3"
        },
        {
            "bufferView" : 6,
            "componentType" : 5126,
            "count" : 172,
            "type" : "VEC2"
        },
        {
            "bufferView" : 7,
            "componentType" : 5123,
            "count" : 768,
            "type" : "SCALAR"
        },
        {
            "bufferView" : 8,
            "componentType" : 5126,
            "count" : 25,
            "max" : [
                0.6506831645965576,
                1.3897192478179932,
                0.47322410345077515
            ],
            "min" : [
                0.33916351199150085,
                0.5996211171150208,
                -0.47322407364845276
            ],
            "type" : "VEC3"
        },
        {
            "bufferView" : 9,
            "componentType" : 5126,
            "count" : 25,
            "type" : "VEC3"
        },
        {
            "bufferView" : 10,
            "componentType" : 5126,
            "count" : 25,
            "type" : "VEC2"
        },
        {
            "bufferView" : 11,
            "componentType" : 5123,
            "count" : 96,
            "type" : "SCALAR"
        }
    ],
    "bufferViews" : [
        {
            "buffer" : 0,
            "byteLength" : 5220,
            "byteOffset" : 0
        },
        {
            "buffer" : 0,
            "byteLength" : 5220,
            "byteOffset" : 5220
        },
        {
            "buffer" : 0,
            "byteLength" : 3480,
            "byteOffset" : 10440
        },
        {
            "buffer" : 0,
            "byteLength" : 4032,
            "byteOffset" : 13920
        },
        {
            "buffer" : 0,
            "byteLength" : 2064,
            "byteOffset" : 17952
        },
        {
            "buffer" : 0,
            "byteLength" : 2064,
            "byteOffset" : 20016
        },
        {
            "buffer" : 0,
            "byteLength" : 1376,
            "byteOffset" : 22080
        },
        {
            "buffer" : 0,
            "byteLength" : 1536,
            "byteOffset" : 23456
        },
        {
            "buffer" : 0,
            "byteLength" : 300,
            "byteOffset" : 24992
        },
        {
            "buffer" : 0,
            "byteLength" : 300,
            "byteOffset" : 25292
        },
        {
            "buffer" : 0,
            "byteLength" : 200,
            "byteOffset" : 25592
        },
        {
            "buffer" : 0,
            "byteLength" : 192,
            "byteOffset" : 25792
        }
    ],
    "buffers" : [
        {
            "byteLength" : 25984,
            "uri" : "data:application/octet-stream;base64,"
        }
    ]
}
